<svg width="21" height="24" viewBox="0 0 21 24" fill="none" xmlns="http://www.w3.org/2000/svg">
<g id="Group">
<path id="Vector" d="M10.4375 23.4687C11.7609 23.4687 12.8437 22.3859 12.8437 21.0625H8.03125C8.03125 22.3859 9.11406 23.4687 10.4375 23.4687ZM17.6562 16.25V10.2343C17.6562 6.54075 15.6952 3.44872 12.2422 2.63059V1.81247C12.2422 0.813876 11.4361 0.00778198 10.4375 0.00778198C9.43891 0.00778198 8.63281 0.813876 8.63281 1.81247V2.63059C5.19187 3.44872 3.21875 6.52872 3.21875 10.2343V16.25L0.8125 18.6562V19.8593H20.0625V18.6562L17.6562 16.25ZM15.25 17.4531H5.625V10.2343C5.625 7.2506 7.44172 4.82028 10.4375 4.82028C13.4333 4.82028 15.25 7.2506 15.25 10.2343V17.4531Z" fill="#4B4948"/>
</g>
</svg>
